:version 1.10
:name ASF
:units
  mass 1
  length 1
  angle deg
:documentation
  ASF file generated by Kaydara
:root
  axis xyz
  order  tx ty tz rx ry rz
  position 0 0 0
  orientation 0 0 0
:bonedata
  begin
    id 1
    name RightUpLegDummy
    direction -1 2.30186e-007 8.31532e-007
    length 4.46685
    axis 0 0 0 xyz
  end
  begin
    id 2
    name RightUpLeg
    direction -2.30187e-007 -1 1.24343e-010
    length 16.4045
    axis -3.49089 -0.000906625 0.000286804 xyz
    dof rx ry rz
  end
  begin
    id 3
    name RightLeg
    direction -2.30181e-007 -1 -4.17157e-009
    length 17.5097
    axis 3.68512 0.0193738 -0.131023 xyz
    dof rx ry rz
  end
  begin
    id 4
    name RightFoot
    direction 8.31421e-007 -4.51202e-011 1
    length 6.49508
    axis 4.81691e-005 -0.120479 -0.188788 xyz
    dof rx ry rz
  end
  begin
    id 5
    name RightToes
    direction 0.00124746 -0.014064 0.9999
    length 3.85082
    axis 0.000481921 0.542163 -0.142578 xyz
    dof rx ry rz
  end
  begin
    id 6
    name SpineDummy
    direction 0.0717043 0.9409 -0.331007
    length 10.0032
    axis 0 0 0 xyz
  end
  begin
    id 7
    name Spine
    direction 2.30186e-007 1 4.58806e-011
    length 9.84055
    axis -0.001389 0.000121418 2.40972e-006 xyz
    dof rx ry rz
  end
  begin
    id 8
    name Spine1
    direction 0 0 0
    length 0
    axis -0.001389 0.000121451 1.30017e-006 xyz
    dof rx ry rz
  end
  begin
    id 9
    name HEadDummy
    direction -0.00347485 0.950688 -0.310128
    length 8.00997
    axis -0.001389 0.000121451 1.30017e-006 xyz
  end
  begin
    id 10
    name HEad
    direction -0.0222688 0.980941 0.193023
    length 5.12695
    axis -0.001389 0.000121451 1.30017e-006 xyz
    dof rx ry rz
  end
  begin
    id 11
    name LeftShoulder1Dummy
    direction 0.988871 0.146793 -0.0242004
    length 3.5792
    axis -0.001389 0.000121451 1.30017e-006 xyz
  end
  begin
    id 12
    name LeftShoulder1
    direction 0.993832 0.108932 0.020779
    length 4.16823
    axis -0.001389 0.000121451 1.30017e-006 xyz
    dof rx ry rz
  end
  begin
    id 13
    name LeftArm
    direction 1 3.44807e-006 -8.31404e-007
    length 9.91437
    axis -23.1894 0.134784 0.967509 xyz
    dof rx ry rz
  end
  begin
    id 14
    name LeftForeArm
    direction 1 3.44842e-006 -8.31581e-007
    length 9.08575
    axis -9.91835 -0.06569 -0.177793 xyz
    dof rx ry rz
  end
  begin
    id 15
    name LeftHand
    direction 0.992938 -0.0411636 0.11126
    length 5.32135
    axis -0.00960232 -0.00340091 0.185173 xyz
    dof rx ry rz
  end
  begin
    id 16
    name RightShoulderDummy
    direction -0.988871 0.146793 -0.0241962
    length 3.5792
    axis -0.001389 0.000121451 1.30017e-006 xyz
  end
  begin
    id 17
    name RightShoulder
    direction -0.993832 0.108933 0.0207785
    length 4.16823
    axis 0.215806 0.000203643 -0.0068026 xyz
    dof rx ry rz
  end
  begin
    id 18
    name RightArm
    direction -1 3.90912e-006 8.31284e-007
    length 9.91437
    axis -23.2009 -0.134239 -0.964101 xyz
    dof rx ry rz
  end
  begin
    id 19
    name RightForeArm
    direction -1 3.90882e-006 8.31502e-007
    length 9.08575
    axis -9.92322 0.0658061 0.178867 xyz
    dof rx ry rz
  end
  begin
    id 20
    name RightHand
    direction -0.992843 -0.0414603 0.112003
    length 5.28593
    axis -0.00960638 0.00330671 -0.185228 xyz
    dof rx ry rz
  end
  begin
    id 21
    name LeftUpLegDummy
    direction 1 -2.30186e-007 -8.31532e-007
    length 4.46685
    axis 0 0 0 xyz
  end
  begin
    id 22
    name LeftUpLeg
    direction -2.30187e-007 -1 6.00931e-010
    length 16.4045
    axis -3.48766 0.00143442 -0.000524262 xyz
    dof rx ry rz
  end
  begin
    id 23
    name LeftLeg
    direction -2.30187e-007 -1 1.6669e-009
    length 17.5097
    axis 3.68178 -0.00654042 -0.000285133 xyz
    dof rx ry rz
  end
  begin
    id 24
    name LeftFoot
    direction 8.31532e-007 -4.54478e-011 1
    length 6.49508
    axis 1.87233e-006 4.66016e-005 -8.6538e-006 xyz
    dof rx ry rz
  end
  begin
    id 25
    name LeftToes
    direction 0.00818058 -0.00485161 0.999955
    length 3.85048
    axis 1.06247e-005 4.65869e-005 -8.65513e-006 xyz
    dof rx ry rz
  end
:hierarchy
  begin
    root RightUpLegDummy SpineDummy LeftUpLegDummy
    RightUpLegDummy RightUpLeg
    RightUpLeg RightLeg
    RightLeg RightFoot
    RightFoot RightToes
    SpineDummy Spine
    Spine Spine1
    Spine1 HEadDummy LeftShoulder1Dummy RightShoulderDummy
    HEadDummy HEad
    LeftShoulder1Dummy LeftShoulder1
    LeftShoulder1 LeftArm
    LeftArm LeftForeArm
    LeftForeArm LeftHand
    RightShoulderDummy RightShoulder
    RightShoulder RightArm
    RightArm RightForeArm
    RightForeArm RightHand
    LeftUpLegDummy LeftUpLeg
    LeftUpLeg LeftLeg
    LeftLeg LeftFoot
    LeftFoot LeftToes
  end

:SAMPLES-PER-SECOND 30
:FULLY-SPECIFIED
:DEGREES
53
root  41.9574 29.9388 6.51242 -163.597 -24.1482 178.236
RightUpLeg  -36.4004 0.216806 -19.0621
RightLeg  46.7952 -0.892668 -0.87278
RightFoot  -10.797 0.0594448 1.00664
RightToes  -49.096 -0.294911 -0.360534
Spine  14.1587 1.88733 3.48519
Spine1  26.9919 5.83137 1.28363
HEad  11.4944 23.1725 -13.6123
LeftShoulder1  0 -2.42657e-020 -4.95415e-022
LeftArm  -10.371 -8.08078 -87.5569
LeftForeArm  37.9436 -38.5838 -8.07948
LeftHand  0.466923 -9.02235 -6.28758
RightShoulder  0 2.42657e-020 1.07489e-018
RightArm  -10.5986 22.3057 67.2399
RightForeArm  68.8024 46.3005 10.5725
RightHand  -6.77485 24.2253 -30.4755
LeftUpLeg  -43.2205 1.00792 16.0651
LeftLeg  46.5112 -1.80873 -1.6825
LeftFoot  -2.61578 -0.00223687 -0.0979842
LeftToes  -40.4375 1.28829e-006 1.15665e-007
54
root  40.9389 28.8712 7.04896 -162.021 -23.9293 178.121
RightUpLeg  -40.349 -0.261541 -21.8401
RightLeg  51.6905 -0.860967 -1.00793
RightFoot  -13.0133 0.120318 1.43253
RightToes  -50.7912 -0.309903 -0.367627
Spine  15.38 3.41682 4.35865
Spine1  28.942 9.71367 1.46448
HEad  10.3413 20.0998 -13.5914
LeftShoulder1  0 -2.42657e-020 -4.95415e-022
LeftArm  -6.21588 -12.8445 -90.7406
LeftForeArm  37.9324 -38.1805 -7.96213
LeftHand  0.465224 -9.08246 -6.22695
RightShoulder  0 2.42657e-020 1.07489e-018
RightArm  -19.527 27.308 66.8218
RightForeArm  65.7604 33.0273 6.51715
RightHand  -5.63891 24.7719 -24.9157
LeftUpLeg  -49.7011 3.41651 14.1242
LeftLeg  55.7362 -3.34684 -4.29074
LeftFoot  -7.75041 0.0222226 0.328054
LeftToes  -41.967 1.28829e-006 1.15665e-007
55
root  39.7121 27.9394 7.5446 -160.864 -22.7959 177.61
RightUpLeg  -42.9543 -0.329124 -25.4661
RightLeg  54.6562 -0.574437 -0.771201
RightFoot  -14.1639 0.161924 1.68093
RightToes  -52.7485 -0.327465 -0.375262
Spine  16.6045 4.8707 4.99955
Spine1  30.8268 12.8942 2.58822
HEad  9.76791 15.8196 -12.4558
LeftShoulder1  0 -2.42657e-020 -4.95415e-022
LeftArm  -1.10596 -16.6244 -94.198
LeftForeArm  38.4172 -37.8013 -7.85244
LeftHand  0.449436 -9.37632 -5.85056
RightShoulder  0 2.42657e-020 1.07489e-018
RightArm  -36.1482 31.6186 63.9243
RightForeArm  61.7143 22.0049 4.03122
RightHand  -3.40963 23.2316 -16.1118
LeftUpLeg  -54.7693 4.99312 11.0808
LeftLeg  63.8969 -2.93783 -5.12912
LeftFoot  -11.774 0.0594625 0.576672
LeftToes  -40.5055 1.28829e-006 1.15665e-007
56
root  38.3287 27.3066 7.87143 -160.99 -21.1065 177.15
RightUpLeg  -43.0765 0.943666 -29.205
RightLeg  54.9734 -0.720501 -0.962721
RightFoot  -13.9555 0.183405 1.87608
RightToes  -54.7802 -0.345959 -0.382547
Spine  17.7369 5.70167 5.51561
Spine1  32.5983 14.0402 4.67387
HEad  9.07257 11.68 -11.6336
LeftShoulder1  0 -2.42657e-020 -4.95415e-022
LeftArm  2.63737 -18.8385 -97.1859
LeftForeArm  39.3918 -38.0024 -7.90903
LeftHand  0.424561 -9.72294 -5.36235
RightShoulder  0 2.42657e-020 1.07489e-018
RightArm  -58.8204 33.3784 58.1893
RightForeArm  48.584 12.9804 2.30483
RightHand  -1.59065 20.8063 -8.28065
LeftUpLeg  -56.5492 5.47831 8.09218
LeftLeg  69.314 -2.19086 -4.83964
LeftFoot  -15.3056 0.0707569 0.526584
LeftToes  -39.6599 1.28829e-006 1.15665e-007
57
root  36.9781 27.1541 8.09952 -161.497 -20.6686 177.262
RightUpLeg  -40.9065 3.71045 -31.7074
RightLeg  52.6045 -2.74196 -3.19505
RightFoot  -12.4645 0.219217 2.38488
RightToes  -53.3215 -0.332654 -0.377383
Spine  17.8055 5.5031 6.15027
Spine1  32.7438 12.6682 7.25456
HEad  9.33393 9.40843 -11.1793
LeftShoulder1  0 -2.42657e-020 -4.95415e-022
LeftArm  3.95043 -18.6464 -99.0032
LeftForeArm  40.1721 -38.6592 -8.09895
LeftHand  0.359997 -9.90162 -4.52717
RightShoulder  0 2.42657e-020 1.07489e-018
RightArm  -69.1911 29.5791 56.1728
RightForeArm  39.8074 15.0618 2.70624
RightHand  -1.12125 20.256 -5.90268
LeftUpLeg  -56.8308 5.35133 5.66059
LeftLeg  71.8246 -1.94498 -4.85354
LeftFoot  -17.4436 0.0947897 0.617866
LeftToes  -37.4278 1.28829e-006 1.15665e-007
58
root  35.7437 27.3946 8.19935 -162.148 -20.6751 177.56
RightUpLeg  -38.1998 9.74183 -33.1747
RightLeg  50.3546 -8.19117 -8.62995
RightFoot  -10.7814 0.294374 3.49656
RightToes  -44.1715 -0.252635 -0.337453
Spine  17.3255 4.785 6.36642
Spine1  32.1373 10.7887 8.08085
HEad  9.36695 10.0179 -11.0211
LeftShoulder1  0 -2.42657e-020 -4.95415e-022
LeftArm  2.67156 -16.7561 -98.5794
LeftForeArm  39.7365 -40.446 -8.63773
LeftHand  0.298783 -9.66577 -3.90541
RightShoulder  0 2.42657e-020 1.07489e-018
RightArm  -62.6336 23.658 58.2152
RightForeArm  28.8762 23.3505 4.35938
RightHand  -1.26143 19.8007 -6.85032
LeftUpLeg  -55.7772 6.09352 3.39906
LeftLeg  72.0156 -2.39819 -6.0302
LeftFoot  -17.9267 0.183399 1.16271
LeftToes  -36.6114 1.28829e-006 1.15665e-007
59
root  34.7029 27.9137 8.22176 -162.896 -20.9172 178.243
RightUpLeg  -35.6961 14.4979 -32.2134
RightLeg  49.1978 -13.9936 -13.8586
RightFoot  -9.7252 0.341804 4.39401
RightToes  -29.8494 -0.142885 -0.250918
Spine  16.4197 3.61682 6.08702
Spine1  30.8631 8.16097 7.78343
HEad  9.82489 12.2402 -10.5941
LeftShoulder1  0 -2.42657e-020 -4.95415e-022
LeftArm  -0.0328895 -13.9287 -96.1925
LeftForeArm  38.7712 -42.5204 -9.30238
LeftHand  0.269884 -9.66775 -3.563
RightShoulder  0 2.42657e-020 1.07489e-018
RightArm  -53.8917 16.7209 62.9497
RightForeArm  30.7925 35.3991 7.19704
RightHand  -1.97603 18.3524 -11.8217
LeftUpLeg  -53.7037 7.17447 1.78772
LeftLeg  70.2275 -3.14634 -7.22584
LeftFoot  -17.745 0.281388 1.80242
LeftToes  -35.1279 1.28829e-006 1.15665e-007
60
root  33.8474 28.5756 8.20211 -163.754 -21.7442 178.89
RightUpLeg  -33.3846 13.9534 -28.7357
RightLeg  48.368 -12.066 -11.711
RightFoot  -10.4992 0.314008 3.79438
RightToes  -30.8802 -0.150029 -0.258037
Spine  15.5179 1.94975 5.48011
Spine1  29.2867 4.23893 7.74581
HEad  10.3401 13.7178 -9.30258
LeftShoulder1  0 -2.42657e-020 -4.95415e-022
LeftArm  -1.83645 -11.5683 -92.6156
LeftForeArm  37.4696 -43.8184 -9.74269
LeftHand  0.260957 -9.45927 -3.52584
RightShoulder  0 2.42657e-020 1.07489e-018
RightArm  -49.4785 10.0913 68.3745
RightForeArm  40.643 45.046 10.1778
RightHand  -3.86707 18.455 -23.1162
LeftUpLeg  -51.0549 7.07175 0.813292
LeftLeg  67.3109 -3.77247 -7.57353
LeftFoot  -16.7846 0.301926 2.04632
LeftToes  -33.3974 1.28829e-006 1.15665e-007
61
root  33.1665 29.319 8.18576 -164.219 -21.9997 179.144
RightUpLeg  -32.8416 11.7004 -24.713
RightLeg  49.7788 -8.94778 -9.21777
RightFoot  -10.6225 0.22804 2.83033
RightToes  -33.1843 -0.166452 -0.273477
Spine  14.7725 0.382523 4.64324
Spine1  27.7692 0.305092 7.98774
HEad  10.7457 14.5424 -8.75437
LeftShoulder1  0 -2.42657e-020 -4.95415e-022
LeftArm  -3.02706 -9.81191 -89.2825
LeftForeArm  36.6076 -43.2325 -9.5431
LeftHand  0.290636 -9.51137 -3.86517
RightShoulder  0 2.42657e-020 1.07489e-018
RightArm  -45.6841 3.09211 72.9246
RightForeArm  47.8919 56.8042 15.6747
RightHand  -4.39475 18.3315 -26.3925
LeftUpLeg  -48.2946 6.84874 -0.209362
LeftLeg  63.5868 -4.14109 -7.11431
LeftFoot  -15.1056 0.251532 1.89689
LeftToes  -31.5588 1.28829e-006 1.15665e-007
